<?xml version="1.0" standalone="no"?>
<!DOCTYPE svg PUBLIC "-//W3C//DTD SVG 20010904//EN"
 "http://www.w3.org/TR/2001/REC-SVG-20010904/DTD/svg10.dtd">
<svg version="1.0" xmlns="http://www.w3.org/2000/svg"
 width="100.000000pt" height="100.000000pt" viewBox="0 0 100.000000 100.000000"
 preserveAspectRatio="xMidYMid meet">

<g transform="translate(0.000000,100.000000) scale(0.100000,-0.100000)"
fill="#3C5F94" stroke="none">
<path d="M340 960 c-18 -18 -33 -20 -140 -20 -176 0 -160 40 -160 -410 0 -357
1 -371 20 -390 18 -18 33 -20 190 -20 l170 0 0 240 c0 164 4 247 12 265 20 44
55 55 178 55 l110 0 0 110 c0 150 0 150 -160 150 -107 0 -122 2 -140 20 -11
11 -29 20 -40 20 -11 0 -29 -9 -40 -20z m56 -31 c10 -17 -13 -36 -27 -22 -12
12 -4 33 11 33 5 0 12 -5 16 -11z m-56 -49 c11 -11 29 -20 40 -20 11 0 29 9
40 20 15 15 33 20 70 20 l50 0 0 -38 c0 -21 -5 -43 -12 -50 -17 -17 -279 -17
-296 0 -7 7 -12 29 -12 50 l0 38 50 0 c37 0 55 -5 70 -20z m-80 -240 c0 -53 2
-60 20 -60 17 0 20 7 20 40 0 33 3 40 20 40 17 0 20 -7 20 -40 0 -33 3 -40 20
-40 13 0 20 -7 20 -20 0 -19 -7 -20 -140 -20 -133 0 -140 1 -140 20 0 13 7 20
20 20 16 0 20 7 20 30 0 23 4 30 20 30 16 0 20 -7 20 -30 0 -23 4 -30 20 -30
18 0 20 7 20 60 0 53 2 60 20 60 18 0 20 -7 20 -60z m64 -219 c26 -27 31 -39
31 -81 0 -43 -5 -54 -33 -82 -47 -48 -117 -48 -164 0 -28 28 -33 39 -33 81 0
52 25 92 70 112 37 16 96 3 129 -30z"/>
<path d="M185 395 c-50 -49 -15 -135 55 -135 33 0 80 38 80 65 0 11 -11 15
-40 15 l-40 0 0 40 c0 48 -18 53 -55 15z"/>
<path d="M480 620 c-19 -19 -20 -33 -20 -270 0 -237 1 -251 20 -270 19 -19 33
-20 220 -20 187 0 201 1 220 20 19 19 20 33 20 270 0 237 -1 251 -20 270 -19
19 -33 20 -220 20 -187 0 -201 -1 -220 -20z m375 -120 l0 -55 -155 0 -155 0
-3 44 c-5 74 -11 72 160 69 l153 -3 0 -55z m-240 -130 c0 -21 -5 -26 -33 -28
-22 -2 -34 2 -38 12 -12 30 4 47 38 44 28 -2 33 -7 33 -28z m120 0 c0 -21 -5
-26 -33 -28 -34 -3 -50 14 -38 44 4 10 16 14 38 12 28 -2 33 -7 33 -28z m120
0 c0 -21 -5 -26 -33 -28 -22 -2 -34 2 -38 12 -12 30 4 47 38 44 28 -2 33 -7
33 -28z m-240 -100 c0 -21 -5 -26 -33 -28 -34 -3 -50 14 -38 44 4 10 16 14 38
12 28 -2 33 -7 33 -28z m120 0 c0 -21 -5 -26 -33 -28 -34 -3 -50 14 -38 44 4
10 16 14 38 12 28 -2 33 -7 33 -28z m120 0 c0 -21 -5 -26 -33 -28 -34 -3 -50
14 -38 44 4 10 16 14 38 12 28 -2 33 -7 33 -28z m-240 -100 c0 -21 -5 -26 -33
-28 -34 -3 -50 14 -38 44 4 10 16 14 38 12 28 -2 33 -7 33 -28z m120 0 c0 -21
-5 -26 -33 -28 -22 -2 -34 2 -38 12 -12 30 4 47 38 44 28 -2 33 -7 33 -28z
m120 0 c0 -21 -5 -26 -33 -28 -34 -3 -50 14 -38 44 4 10 16 14 38 12 28 -2 33
-7 33 -28z"/>
</g>
</svg>
