<?xml version="1.0" standalone="no"?>
<!DOCTYPE svg PUBLIC "-//W3C//DTD SVG 20010904//EN"
 "http://www.w3.org/TR/2001/REC-SVG-20010904/DTD/svg10.dtd">
<svg version="1.0" xmlns="http://www.w3.org/2000/svg"
 width="90.000000pt" height="90.000000pt" viewBox="0 0 90.000000 90.000000"
 preserveAspectRatio="xMidYMid meet">

<g transform="translate(0.000000,90.000000) scale(0.100000,-0.100000)"
fill="#3C5F94" stroke="none">
<path d="M360 788 c-68 -35 -90 -86 -86 -197 3 -82 5 -89 44 -148 46 -68 53
-110 23 -137 -10 -9 -50 -27 -89 -40 -112 -36 -147 -67 -159 -140 l-6 -36 363
0 363 0 -6 36 c-12 73 -55 110 -168 144 -112 34 -129 83 -58 164 l41 46 80 0
c75 0 81 2 109 29 28 28 29 33 29 121 0 88 -1 93 -29 121 -29 29 -29 29 -158
29 -97 1 -133 4 -147 15 -29 22 -95 18 -146 -7z m415 -158 l0 -85 -84 -3 c-72
-2 -88 -6 -117 -29 l-34 -25 0 25 c0 21 -6 26 -27 29 -27 3 -28 5 -31 77 -2
41 -1 80 2 88 5 11 35 13 148 11 l143 -3 0 -85z"/>
</g>
</svg>
