<?xml version="1.0" standalone="no"?>
<!DOCTYPE svg PUBLIC "-//W3C//DTD SVG 20010904//EN"
 "http://www.w3.org/TR/2001/REC-SVG-20010904/DTD/svg10.dtd">
<svg version="1.0" xmlns="http://www.w3.org/2000/svg"
 width="96.000000pt" height="96.000000pt" viewBox="0 0 96.000000 96.000000"
 preserveAspectRatio="xMidYMid meet">

<g transform="translate(0.000000,96.000000) scale(0.100000,-0.100000)"
fill="#3C5F94" stroke="none">
<path d="M80 505 l0 -296 25 -24 c23 -24 29 -25 160 -25 122 0 140 -2 162 -20
33 -25 73 -25 106 0 22 18 40 20 162 20 131 0 137 1 160 25 l25 24 0 296 0
296 -145 -3 -145 -3 -32 -33 -33 -32 -3 -245 -3 -245 -39 0 -39 0 -3 245 -3
245 -33 32 -32 33 -145 3 -145 3 0 -296z m640 156 c0 -11 8 -22 19 -26 26 -8
48 -35 56 -67 7 -27 5 -28 -28 -28 -29 0 -36 4 -39 23 -5 34 -42 30 -46 -6 -3
-22 3 -30 29 -45 51 -27 89 -68 89 -96 0 -40 -20 -74 -51 -87 -17 -7 -29 -19
-29 -30 0 -12 -7 -19 -20 -19 -13 0 -20 7 -20 19 0 11 -9 22 -20 26 -25 8 -60
52 -60 76 0 15 7 19 34 19 28 0 35 -4 38 -22 4 -33 52 -32 56 0 4 25 -23 62
-43 62 -7 0 -27 13 -44 29 -44 41 -42 83 4 127 19 18 35 40 35 48 0 9 9 16 20
16 13 0 20 -7 20 -19z"/>
</g>
</svg>
