<?xml version="1.0" encoding="utf-8"?>
<svg xmlns="http://www.w3.org/2000/svg" xmlns:xlink="http://www.w3.org/1999/xlink" version= "1.1" width="1117px" height="800px" viewBox="-199 312 1117 800">
<g id="layer1">
<g style="fill:rgb(106,134,177); fill-opacity:1.0; stroke-linejoin: miter">
<path d="M-199.001,311.08987C-199.24213,311.08987,-199.47336,311.18564,-199.64386,311.35614C-199.81436,311.52664,-199.91014,311.75787,-199.91014,311.999L-199.90913,1112.0C-199.90913,1112.5021,-199.5021,1112.9092,-199.0,1112.9092L918.001,1112.9102C918.24207,1112.9102,918.4733,1112.8143,918.6438,1112.6438C918.8143,1112.4733,918.9101,1112.2421,918.9101,1112.001L918.9091,312.0C918.9091,311.4979,918.5021,311.09088,918.0,311.09088L-199.001,311.08987 Z"/>
</g>
</g>
<g id="layer2">
<g style="fill:rgb(245,245,245); fill-opacity:1.0; stroke-linejoin: miter">
<path d="M103.07295,462.5569C88.09256,462.5569,75.93907,474.7103,75.93907,489.69766L75.93907,923.93994C75.93907,938.92694,88.09256,951.07367,103.07295,951.07367L415.19,951.0754C430.1773,951.07367,442.32397,938.92694,442.32397,923.93994L442.32397,588.2409L311.507,462.5569L103.07295,462.5586 Z"/>
</g>
<g style="fill:rgb(225,225,225); fill-opacity:1.0; stroke-linejoin: miter">
<path d="M442.3291,588.2409L338.646,588.2426C323.65887,588.2409,311.51212,576.09436,311.51212,561.10706L311.51212,462.5569L442.3291,588.2409 Z"/>
</g>
<g style="fill:rgb(201,201,200); fill-opacity:1.0; stroke-linejoin: miter">
<path d="M404.147,625.3041C404.147,629.98004,400.35397,633.78,395.67114,633.78L124.60898,633.7816C119.933014,633.78,116.13997,629.98004,116.13997,625.3041L116.13997,625.3058C116.13997,620.6281,119.933014,616.8282,124.60898,616.8282L395.67114,616.8299C400.35397,616.8299,404.147,620.62805,404.147,625.3041L404.147,625.3058 Z"/>
</g>
<g style="fill:rgb(201,201,200); fill-opacity:1.0; stroke-linejoin: miter">
<path d="M404.147,669.7768C404.147,674.45276,400.35397,678.2526,395.67114,678.2526L124.60898,678.2544C119.933014,678.2526,116.13997,674.45276,116.13997,669.7768L116.13997,669.7783C116.13997,665.1008,119.933014,661.3009,124.60898,661.3009L395.67114,661.3027C400.35397,661.3009,404.147,665.1008,404.147,669.7768L404.147,669.7783 Z"/>
</g>
<g style="fill:rgb(201,201,200); fill-opacity:1.0; stroke-linejoin: miter">
<path d="M404.147,712.13226C404.147,716.8081,400.35397,720.608,395.67114,720.608L124.60898,720.6097C119.933014,720.608,116.13997,716.8081,116.13997,712.13226L116.13997,712.1338C116.13997,707.44946,119.933014,703.6631,124.60898,703.6631L395.67114,703.6648C400.35397,703.6581,404.147,707.45105,404.147,712.13226L404.147,712.1338 Z"/>
</g>
<g style="fill:rgb(201,201,200); fill-opacity:1.0; stroke-linejoin: miter">
<path d="M404.147,756.6048C404.147,761.28064,400.35397,765.08057,395.67114,765.08057L124.60898,765.0824C119.933014,765.08057,116.13997,761.28064,116.13997,756.6048L116.13997,756.60657C116.13997,751.9289,119.933014,748.12897,124.60898,748.12897L395.67114,748.1306C400.35397,748.12897,404.147,751.9289,404.147,756.6048L404.147,756.60657 Z"/>
</g>
<g style="fill:rgb(201,201,200); fill-opacity:1.0; stroke-linejoin: miter">
<path d="M266.49954,792.6017L124.60898,792.6034C119.933014,792.6017,116.13997,796.4016,116.13997,801.0774C116.13997,805.7535,119.933014,809.5534,124.60898,809.5534L266.49954,809.55524C271.18225,809.5534,274.97543,805.7535,274.97543,801.0774C274.97543,796.4016,271.18225,792.6017,266.49954,792.6017 Z"/>
</g>
<g>
<g style="fill:rgb(88,49,28); fill-opacity:1.0; stroke-linejoin: miter">
<path d="M540.04224,541.7905Q532.73413,541.79346,528.41064,544.5414Q524.4813,546.8346,521.0797,553.6289L548.1331,587.95984L562.20593,588.14233Q567.9425,583.6555,568.99896,574.69653Q570.06555,564.04785,566.1457,555.5434Q560.0519,542.57935,540.10516,541.7906"/>
</g>
<g style="fill:rgb(255,255,255); fill-opacity:1.0; stroke-linejoin: miter">
<path d="M519.4469,605.10803L509.7465,634.3928L494.4073,758.3339L554.7627,755.6752L556.9419,609.4757L519.4614,605.10974"/>
</g>
<g style="fill:rgb(0,0,0); fill-opacity:1.0; stroke-linejoin: miter">
<path d="M475.49643,738.99554Q464.59793,804.1945,463.67752,815.6114L460.29398,862.48694Q459.65076,871.6133,449.85007,982.69586Q448.10455,1003.3936,448.1751,1007.22864L448.22705,1007.65063L476.17093,1015.46655L516.098,813.0958L519.265,1004.7093L545.0078,1004.2137Q551.897,925.9559,559.3485,871.137Q564.6548,830.0906,580.438,742.9989L475.54477,738.9974"/>
</g>
<g style="fill:rgb(0,0,0); fill-opacity:1.0; stroke-linejoin: miter">
<path d="M427.70615,599.90283L396.31497,611.54114Q402.4837,645.13635,406.93793,658.81604Q411.97348,674.85443,418.06055,680.729Q424.22684,686.75415,433.6786,685.2119Q441.49146,684.33105,459.6463,674.339L443.42493,796.0213L493.79062,808.7484L512.80994,668.96405L519.2441,606.36035L512.04364,610.9015L472.9759,615.03217Q463.1499,628.1587,457.0155,633.11194Q451.0346,638.3695,437.16,645.30994L427.7245,599.9916"/>
</g>
<g style="fill:rgb(0,0,0); fill-opacity:1.0; stroke-linejoin: miter">
<path d="M556.82117,612.2175L526.99664,814.56024L564.3302,814.14154L597.5853,819.6494Q602.213,731.1351,602.14307,700.3728Q602.41345,667.97687,598.1068,637.2762L556.9564,612.2988"/>
</g>
<g style="fill:rgb(126,142,167); fill-opacity:1.0; stroke-linejoin: miter">
<path d="M533.2094,624.48596L522.9177,626.42017L525.962,636.3883L525.9441,636.5768L510.3768,733.8722L519.4276,743.6678L530.78723,734.23456L532.6732,638.5812L540.61053,631.64465L533.2193,624.4955"/>
</g>
<g style="fill:rgb(255,189,154); fill-opacity:1.0; stroke-linejoin: miter">
<path d="M527.4641,546.72864Q524.76855,546.66943,521.93726,550.65814Q517.8748,556.55054,516.3209,562.1837Q515.8721,563.9617,515.7777,565.5981Q515.7935,572.6276,515.61456,572.9204Q515.60547,573.6458,514.3151,579.8675Q514.0944,581.1656,514.02893,582.1233Q513.942,583.2987,514.0271,584.73206Q514.74255,591.1099,514.5846,591.4225Q514.6832,592.21246,513.68726,598.324Q513.51825,600.01,513.5867,601.07983Q513.7717,603.75916,514.88806,604.4886Q515.9993,605.40967,519.2617,605.39667L518.5534,613.5187L531.4701,625.2224L555.7831,613.93494L556.046,598.16534Q561.16174,591.63684,562.74963,588.4021Q564.6053,584.8663,564.42645,581.8501Q563.8072,576.5755,560.4424,576.2782Q558.24634,575.9704,552.48035,582.022Q553.5288,566.7492,552.8452,560.578Q552.18823,553.61755,549.4977,551.2333Q547.83057,549.65393,545.1044,549.103Q544.00244,548.8713,542.48035,548.77954Q535.4794,548.74744,535.01587,548.52466Q533.2782,548.3603,528.84357,546.91724L527.54626,546.7295"/>
</g>
<g style="fill:rgb(0,0,0); fill-opacity:1.0; stroke-linejoin: miter">
<path d="M519.91943,997.86694L517.8456,1017.451Q523.6597,1020.4492,524.7705,1022.1476Q525.32074,1022.8852,525.4226,1023.6672Q525.53674,1023.6575,525.39703,1026.8949Q525.4405,1027.7103,525.7301,1028.4656Q526.3005,1030.0377,528.6776,1031.9968Q532.21466,1034.8662,537.574,1037.4365Q541.32605,1039.2358,544.251,1039.2761Q548.7372,1039.2285,552.1775,1036.8503Q555.11926,1034.6685,554.848,1031.553Q554.78894,1029.2852,552.91174,1024.3623Q551.0458,1019.4114,542.3895,998.40826L519.9908,997.8685"/>
</g>
<g style="fill:rgb(0,0,0); fill-opacity:1.0; stroke-linejoin: miter">
<path d="M451.16864,1003.6145L451.11713,1003.6963Q443.08252,1016.6112,439.3521,1020.8626Q437.71335,1022.80457,435.8925,1024.3833Q435.38797,1024.9259,429.86728,1029.0359Q428.55887,1030.0837,427.41852,1031.208Q424.49936,1034.11,422.07956,1037.9043Q416.1849,1047.322,422.5807,1048.9624Q425.90424,1050.0978,434.67154,1049.6736Q442.81534,1049.235,448.23892,1047.6366Q453.1353,1046.2222,455.49185,1043.6483Q456.71033,1042.3633,457.5379,1040.7124Q458.21906,1039.4685,459.0821,1036.3677Q459.24643,1035.9436,459.36993,1035.8776Q459.56772,1035.7516,459.7967,1035.8813Q461.37827,1036.9412,462.0435,1037.1743Q462.7106,1037.4628,463.67352,1037.665Q465.89923,1038.0975,468.57095,1037.6877Q473.87628,1036.7556,476.1809,1033.1459Q479.6888,1027.685,475.75702,1011.5885L451.23193,1003.6348"/>
</g>
<g style="fill:rgb(255,189,154); fill-opacity:1.0; stroke-linejoin: miter">
<path d="M574.0642,826.86487Q574.89246,827.07404,574.55334,830.15314Q574.1571,832.8379,572.99976,834.67395Q571.4966,837.30176,567.34827,837.32477Q568.1898,836.4268,569.1841,834.7556L572.8778,828.08496Q573.68896,826.82416,574.063,826.86487 M567.83765,814.1708Q567.4257,820.2863,566.80396,823.09894Q566.4625,824.7566,565.98083,826.17035Q565.83856,826.7092,564.13947,830.9107L563.5939,832.57434Q563.09265,834.39,563.3936,835.80585Q563.7444,837.4616,564.8069,838.0689Q565.2157,838.2649,565.5773,838.2422Q567.4158,839.18176,569.5393,839.86804Q571.3845,840.4637,573.1946,840.76587Q580.96875,842.29346,586.85645,836.2922Q590.5188,832.61145,592.8102,827.66296Q594.83813,823.2085,594.2279,820.0194Q593.9663,818.84766,593.6704,818.43994L567.8681,814.1758"/>
</g>
<g style="fill:rgb(255,189,154); fill-opacity:1.0; stroke-linejoin: miter">
<path d="M415.6656,564.7736Q411.1222,564.8371,409.5739,567.4667Q409.04318,568.38934,408.77203,569.7389L408.0239,575.5648Q407.75156,577.1449,407.32672,578.23157Q406.845,579.474,406.0376,580.76404Q402.18814,586.2986,402.20193,586.5435Q401.24213,588.33374,401.09756,589.76587Q400.82523,591.9701,402.1549,594.9553Q403.35727,597.8115,407.7273,603.72437L410.4866,610.902L428.10486,604.9193Q429.18323,598.1362,429.56915,594.62415Q432.70645,565.39,415.7103,564.77374"/>
</g>
<g style="fill:rgb(14,0,14); fill-opacity:1.0; stroke-linejoin: miter">
<path d="M418.02756,563.7498L417.08542,568.11816L422.60168,565.01245L418.02994,563.7504"/>
</g>
<g style="fill:rgb(14,0,14); fill-opacity:1.0; stroke-linejoin: miter">
<path d="M425.52884,535.6516Q429.21884,535.7427,431.64053,539.7449Q434.04807,543.93945,433.79773,549.60657Q433.45837,555.3131,430.65298,559.4668Q427.73087,563.5491,424.0682,563.61383Q420.38104,563.5205,417.9465,559.53577Q415.54175,555.34265,415.79758,549.67346Q416.12982,543.9651,418.9359,539.8113Q421.85345,535.7283,425.51752,535.6516 M425.55246,533.33203Q420.83707,533.43317,417.29993,538.11694Q413.85846,542.90906,413.4807,549.62646Q413.23523,556.4381,416.24112,561.18066Q419.38248,565.8428,424.02783,565.93115Q428.67462,565.8797,432.25098,561.21265Q435.70535,556.47125,436.1137,549.6616Q436.38394,542.9757,433.35007,538.104Q430.22495,533.42316,425.57635,533.33203"/>
</g>
<g style="fill:rgb(255,0,0); fill-opacity:0.09411765; stroke-linejoin: miter">
<path d="M539.96497,604.233Q533.5642,605.8899,530.5156,606.1347Q527.5728,606.4629,522.1239,605.90625L518.499,613.3832L531.40356,625.3323L542.8602,619.9303L539.97034,604.26184"/>
</g>
</g>
<g style="fill:rgb(0,0,0); fill-opacity:0.39215687; stroke-linejoin: miter">
<path d="M638.3236,1029.1055L635.77783,1032.6753Q631.75574,1035.0728,624.2905,1037.2568Q622.7097,1038.4822,594.14844,1043.3291Q568.88934,1047.0573,529.85834,1049.9321Q490.5573,1052.8046,445.05292,1054.1592Q422.3007,1054.8364,397.9978,1055.134Q335.8834,1055.5465,321.59958,1055.1736Q270.77142,1054.4148,228.9894,1052.3567Q208.0984,1051.3276,189.46895,1049.9739Q178.74078,1049.5,138.66907,1045.1816Q70.630615,1036.2739,82.15973,1026.6675Q87.227196,1021.8842,107.24805,1017.843Q117.25847,1015.82245,131.00723,1013.98724Q135.76666,1012.93286,180.22174,1008.94104Q254.10251,1003.04785,359.4421,1002.797Q412.11188,1002.92236,456.917,1004.4584Q479.31964,1005.22644,499.75595,1006.347Q549.12646,1009.4573,556.6411,1010.50256Q591.61536,1013.80176,611.6362,1017.843Q618.9779,1018.7374,633.2561,1024.3223Q637.65906,1026.6211,638.3236,1029.1055"/>
</g>
<g style="fill:rgb(99,112,121); fill-opacity:1.0; stroke-linejoin: miter">
<path d="M249.73004,917.6595L316.4266,917.65985L383.12323,917.6602Q383.12323,980.11926,383.12323,1042.5784Q316.4266,1042.5786,249.73004,1042.5791Q249.73004,980.11926,249.73004,917.6595"/>
</g>
<g style="fill:rgb(60,70,79); fill-opacity:1.0; stroke-linejoin: miter">
<path d="M239.18243,1041.624C239.1938,1045.8936,242.66376,1049.345,246.93573,1049.331L382.24857,1048.9404C386.52054,1048.9283,389.97037,1045.4574,389.96072,1041.188L389.57895,909.74L238.80157,910.17426L239.18243,1041.624 Z M354.83926,929.16925C354.82703,924.8999,358.27765,921.4273,362.54968,921.41504L374.14767,921.3818C378.41962,921.3713,381.89044,924.82104,381.90182,929.09216L381.91324,932.957C381.9255,937.2299,378.47482,940.7007,374.20456,940.71295L362.60568,940.7462C358.3337,940.7585,354.86203,937.3069,354.8498,933.0358L354.83926,929.16925 Z M354.92947,960.10016C354.9172,955.8273,358.3679,952.35657,362.63986,952.3459L374.237,952.3109C378.5089,952.2987,381.97977,955.7503,381.9929,960.0213L382.0034,963.88794C382.01566,968.15735,378.56497,971.6282,374.29303,971.64044L362.695,971.67365C358.423,971.6859,354.9522,968.2361,354.93994,963.965L354.92947,960.10016 Z M355.01962,991.0276C355.0065,986.7565,358.4572,983.2856,362.72916,983.2734L374.32715,983.2401C378.59915,983.22784,382.06995,986.67773,382.0822,990.9505L382.18292,1025.7446C382.19513,1030.0156,378.74536,1033.4865,374.4734,1033.4988L362.8754,1033.532C358.6034,1033.5442,355.1326,1030.0945,355.11948,1025.8215L355.01962,991.0276 Z M320.04355,929.26904C320.03302,924.998,323.48196,921.5289,327.75394,921.5149L339.3528,921.48334C343.6248,921.4693,347.09473,924.9209,347.107,929.192L347.11838,933.0586C347.1315,937.3297,343.68082,940.80054,339.40884,940.8128L327.80997,940.84607C323.53802,940.85834,320.06805,937.4085,320.05496,933.1356L320.04355,929.26904 Z M320.13373,960.19995C320.12143,955.9289,323.5721,952.45795,327.84412,952.4458L339.443,952.41077C343.71497,952.4002,347.1849,955.85004,347.19714,960.1229L347.20944,963.98773C347.2199,968.257,343.7701,971.7279,339.49817,971.74023L327.89926,971.7752C323.62732,971.7857,320.15738,968.3359,320.146,964.0666L320.13373,960.19995 Z M320.2239,991.1274C320.21075,986.85626,323.66144,983.38544,327.93344,983.3733L339.53232,983.3399C343.8043,983.3277,347.2742,986.7775,347.28735,991.0503L347.29874,994.91693C347.31012,999.18805,343.86118,1002.65894,339.5892,1002.67114L327.99036,1002.7044C323.71838,1002.7167,320.24753,999.2669,320.23532,994.994L320.2239,991.1274 Z M320.31323,1022.0566C320.30096,1017.78375,323.75076,1014.31464,328.02277,1014.3006L339.6216,1014.2674C343.89355,1014.2551,347.36353,1017.7067,347.37668,1021.9778L347.38806,1025.8442C347.40027,1030.1172,343.9505,1033.5862,339.6785,1033.5985L328.07965,1033.6317C323.8077,1033.6458,320.33685,1030.1942,320.3255,1025.9232L320.31323,1022.0566 Z M285.24866,929.3706C285.23907,925.10126,288.68887,921.63043,292.96085,921.61816L304.55972,921.58496C308.83167,921.5727,312.29987,925.0207,312.31122,929.2918L312.32263,933.1584C312.3358,937.4295,308.88596,940.9003,304.614,940.9143L293.01514,940.94763C288.74316,940.9599,285.2732,937.50836,285.26093,933.23724L285.24866,929.3706 Z M285.33975,960.3016C285.32837,956.0287,288.77728,952.55786,293.04926,952.54565L304.64813,952.5124C308.9201,952.50183,312.3892,955.9499,312.4023,960.2227L312.4137,964.08765C312.4242,968.35864,308.97614,971.83124,304.70416,971.8435L293.1053,971.875C288.83334,971.889,285.3634,968.4375,285.35114,964.1664L285.33975,960.3016 Z M285.42908,991.2308C285.4168,986.9579,288.8675,983.48706,293.13947,983.47656L304.73834,983.44147C309.01028,983.4292,312.47852,986.8791,312.49164,991.1502L312.503,995.0167C312.5153,999.28784,309.0663,1002.7604,304.79437,1002.7727L293.1955,1002.80774C288.92352,1002.8182,285.45358,999.3684,285.44128,995.0956L285.42908,991.2308 Z M285.51926,1022.1581C285.5061,1017.8871,288.9568,1014.41626,293.22876,1014.404L304.8276,1014.37067C309.0996,1014.3584,312.56866,1017.80646,312.58093,1022.0776L312.5932,1025.9441C312.60458,1030.217,309.15564,1033.6896,304.88367,1033.7019L293.2848,1033.7351C289.0137,1033.7473,285.542,1030.2975,285.53064,1026.0248L285.51926,1022.1581 Z M250.4547,929.47046C250.4442,925.2011,253.89488,921.7302,258.16687,921.71796L269.76398,921.68475C274.03595,921.6725,277.50763,925.1223,277.51816,929.3934L277.5287,933.25995C277.54092,937.53107,274.09113,941.00195,269.81915,941.0142L258.22116,941.0474C253.94917,941.0597,250.47835,937.60986,250.46521,933.33704L250.4547,929.47046 Z M250.54489,960.40137C250.53265,956.12854,253.9833,952.6594,258.2544,952.6454L269.85327,952.6139C274.12524,952.5999,277.59607,956.0515,277.60834,960.3225L277.61884,964.1892C277.6311,968.4602,274.18042,971.931,269.90845,971.9433L258.31042,971.9766C254.03848,971.9889,250.56767,968.53906,250.55627,964.268L250.54489,960.40137 Z M250.63507,991.33057C250.62193,987.05945,254.07263,983.5886,258.34375,983.5746L269.94263,983.54126C274.21457,983.5308,277.6854,986.9806,277.69678,991.2535L277.709,995.11835C277.72128,999.3911,274.2706,1002.86194,269.99866,1002.87244L258.39978,1002.90753C254.12955,1002.9181,250.65872,999.4682,250.64558,995.1971L250.63507,991.33057 Z M250.7244,1022.25793C250.71124,1017.9868,254.16106,1014.5161,258.43304,1014.5038L270.03192,1014.47046C274.3039,1014.4583,277.7747,1017.9081,277.78696,1022.1809L277.79834,1026.0457C277.81146,1030.3186,274.36078,1033.7894,270.0888,1033.8016L258.48993,1033.835C254.21884,1033.8473,250.74803,1030.3958,250.7349,1026.1245L250.7244,1022.25793 Z"/>
</g>
<g style="fill:rgb(0,0,0); fill-opacity:1.0; stroke-linejoin: miter">
<path d="M366.46,936.86914L370.32574,936.85864L370.31522,932.99207L374.18094,932.9798L374.1704,929.1149L370.30295,929.1255L370.29248,925.25885L366.42673,925.2711L366.43814,929.136L362.57156,929.14825L362.58298,933.01483L366.44864,933.00256 Z"/>
</g>
<g style="fill:rgb(0,0,0); fill-opacity:1.0; stroke-linejoin: miter">
<path d="M362.7852,1002.6046L374.38318,1002.5712L374.39545,1006.4379L362.79657,1006.4711L362.7852,1002.6046 Z"/>
</g>
<g style="fill:rgb(0,0,0); fill-opacity:1.0; stroke-linejoin: miter">
<path d="M362.6617,960.07745L374.2606,960.0441L374.27112,963.9107L362.67227,963.944L362.6617,960.07745 Z"/>
</g>
<g style="fill:rgb(0,0,0); fill-opacity:1.0; stroke-linejoin: miter">
<path d="M362.80707,1010.336L374.40594,1010.3028L374.41647,1014.1676L362.81763,1014.20087L362.80707,1010.336 Z"/>
</g>
<g style="fill:rgb(60,70,79); fill-opacity:1.0; stroke-linejoin: miter">
<path d="M234.46742,857.3012L234.46742,906.39L234.78001,906.42505L394.6871,906.39L394.6871,857.3012L234.46742,857.33624"/>
</g>
<g style="fill:rgb(166,216,255); fill-opacity:1.0; stroke-linejoin: miter">
<path d="M243.91847,865.18146L243.91847,898.50793L244.19427,898.54474L385.2369,898.50793L385.2369,865.18146L243.91847,865.2165"/>
</g>
<g style="fill:rgb(125,139,150); fill-opacity:1.0; stroke-linejoin: miter">
<path d="M370.19174,925.3602L370.2019,929.12573C370.202,929.1525,370.21268,929.1782,370.2317,929.1971C370.2506,929.2159,370.27618,929.2265,370.30286,929.2265L370.30322,929.2265L374.06967,929.21625L374.07962,932.8791L370.3149,932.89105C370.25912,932.89124,370.21405,932.9365,370.21417,932.9923L370.22443,936.7579L366.56073,936.7678L366.54965,933.00226C366.5496,932.9755,366.53885,932.9498,366.51987,932.9309C366.50095,932.9122,366.47537,932.90155,366.44867,932.90155L366.44833,932.90155L362.6837,932.91345L362.6729,929.24896L366.43845,929.237C366.49426,929.2368,366.53934,929.19147,366.53918,929.1357L366.52808,925.3718L370.19174,925.3602 Z M374.16663,921.2807L374.1569,921.28076L374.14737,921.28076L362.54938,921.314C358.22162,921.3264,354.72583,924.8444,354.73822,929.1695L354.74875,933.03613C354.76114,937.3554,358.2658,940.8473,362.58298,940.8473L362.5834,940.8473L362.59476,940.8472L362.606,940.8472L374.20486,940.81396C378.5309,940.8015,382.0267,937.2854,382.01425,932.9567L382.00287,929.0919C381.99136,924.7716,378.48572,921.2807,374.16714,921.2807 Z"/>
</g>
</g>
</svg>